<?xml version="1.0" standalone="no"?>
<!DOCTYPE svg PUBLIC "-//W3C//DTD SVG 20010904//EN"
 "http://www.w3.org/TR/2001/REC-SVG-20010904/DTD/svg10.dtd">
<svg version="1.0" xmlns="http://www.w3.org/2000/svg"
 width="1182.000000pt" height="1182.000000pt" viewBox="0 0 1182.000000 1182.000000"
 preserveAspectRatio="xMidYMid meet">
<metadata>
Created by potrace 1.11, written by Peter Selinger 2001-2013
</metadata>
<g transform="translate(0.000000,1182.000000) scale(0.100000,-0.100000)"
fill="#000000" stroke="none">
<path d="M0 5910 l0 -5910 5910 0 5910 0 0 5910 0 5910 -5910 0 -5910 0 0
-5910z m6375 5090 c333 -31 597 -75 905 -151 644 -159 1267 -440 1793 -808 76
-53 152 -105 171 -116 107 -65 501 -417 677 -606 804 -862 1269 -1899 1359
-3033 13 -167 13 -585 0 -757 -158 -2028 -1572 -3771 -3605 -4444 -1402 -464
-2951 -355 -4265 302 -573 285 -1024 613 -1460 1059 -1093 1119 -1596 2635
-1379 4159 152 1072 666 2073 1465 2855 155 152 434 400 449 400 4 0 52 34
108 76 585 436 1299 765 2025 934 327 76 614 116 1022 144 102 7 614 -3 735
-14z"/>
<path d="M5735 10419 c-529 -77 -1031 -479 -1436 -1150 -92 -153 -261 -486
-257 -507 4 -17 79 -49 283 -117 966 -324 2062 -324 3023 -1 151 51 340 124
389 150 l24 12 -69 139 c-379 766 -884 1275 -1421 1431 -169 49 -378 66 -536
43z"/>
<path d="M4017 10070 c-264 -106 -515 -234 -762 -388 -135 -84 -345 -231 -345
-242 0 -9 154 -133 270 -216 94 -68 311 -206 316 -201 1 1 47 92 102 202 150
300 313 562 481 773 98 125 103 132 94 132 -4 0 -75 -27 -156 -60z"/>
<path d="M7721 10018 c169 -211 349 -496 490 -780 41 -82 77 -148 81 -148 12
0 226 147 318 219 169 131 222 181 209 197 -29 36 -335 228 -536 338 -179 97
-603 286 -643 286 -5 0 32 -51 81 -112z"/>
<path d="M9190 9033 c-171 -152 -466 -368 -664 -488 -15 -9 -14 -18 14 -100
81 -237 174 -595 230 -880 17 -88 33 -170 36 -182 l4 -23 -303 0 -304 0 -27
137 c-44 218 -148 613 -195 735 l-10 26 -108 -44 c-873 -361 -1865 -478 -2843
-333 -302 44 -597 116 -895 218 -110 37 -221 76 -247 87 -26 10 -49 16 -52 13
-19 -18 -138 -466 -185 -694 l-28 -140 -302 -3 c-280 -2 -301 -1 -301 15 0 34
80 411 124 583 25 97 66 243 92 325 26 83 47 158 48 168 1 14 -37 42 -138 103
-210 128 -368 241 -570 408 l-109 90 -111 -114 c-573 -590 -981 -1354 -1145
-2142 -33 -158 -66 -377 -77 -505 l-7 -83 572 0 571 0 0 -300 0 -300 -570 0
-570 0 0 -27 c0 -42 29 -277 46 -378 67 -394 195 -797 368 -1160 171 -358 414
-721 698 -1042 99 -112 383 -392 425 -420 21 -14 28 -10 135 70 142 106 338
235 489 321 l117 67 -34 87 c-51 129 -156 456 -203 627 -59 222 -151 640 -151
691 0 12 42 14 301 12 l302 -3 28 -140 c82 -397 273 -1023 311 -1018 7 1 85
27 173 58 984 348 2133 386 3167 104 142 -38 357 -108 474 -154 49 -19 92 -35
95 -35 15 0 140 365 204 595 46 164 91 354 121 508 l17 87 304 0 303 0 -4 -22
c-3 -13 -19 -95 -36 -183 -67 -347 -172 -723 -292 -1053 -48 -134 -67 -197
-59 -200 58 -19 443 -273 600 -396 52 -41 88 -63 96 -58 40 22 304 275 412
394 293 320 506 625 699 993 235 452 402 1001 454 1495 6 58 13 122 15 143 l5
37 -615 0 -615 0 0 300 0 300 615 0 615 0 -5 38 c-2 20 -9 84 -15 142 -26 255
-101 598 -186 855 -178 538 -448 1022 -818 1465 -101 121 -350 386 -374 399
-13 6 -39 -12 -112 -76z m-5075 -2489 c247 -67 432 -267 485 -526 70 -337 -61
-666 -323 -812 -284 -158 -663 -108 -877 114 -144 150 -216 381 -190 610 38
332 236 558 550 626 82 17 272 11 355 -12z m2820 11 c84 -18 194 -71 254 -123
l43 -38 -35 -71 c-39 -77 -76 -113 -115 -113 -14 0 -56 18 -92 40 -80 49 -117
60 -190 60 -64 0 -133 -30 -163 -71 -12 -16 -19 -44 -19 -73 -2 -78 39 -108
237 -177 158 -54 219 -85 281 -141 72 -66 104 -135 111 -235 9 -130 -31 -251
-113 -342 -95 -106 -211 -154 -374 -155 -122 0 -188 13 -287 60 -71 34 -189
122 -200 149 -6 17 79 150 106 164 42 23 84 12 159 -39 125 -85 246 -102 344
-48 82 45 115 164 62 228 -35 41 -59 53 -231 111 -170 58 -214 82 -278 150
-74 79 -90 124 -90 254 0 103 2 114 32 178 91 191 313 283 558 232z m-1225
-33 c124 -44 207 -120 247 -224 10 -27 16 -77 17 -133 1 -78 -3 -98 -26 -147
-14 -31 -47 -77 -72 -102 l-45 -45 34 -21 c59 -36 120 -114 140 -175 27 -87
18 -211 -21 -295 -55 -117 -154 -193 -300 -230 -69 -18 -111 -20 -391 -20
l-313 0 0 711 0 710 333 -3 c315 -3 335 -5 397 -26z m2900 -102 l0 -130 -215
0 -215 0 0 -580 0 -580 -145 0 -145 0 0 580 0 580 -212 2 -213 3 -3 128 -3
127 576 0 575 0 0 -130z"/>
<path d="M3842 6299 c-215 -27 -342 -198 -342 -459 0 -211 75 -351 228 -423
63 -30 74 -32 182 -32 96 0 124 4 172 23 71 29 145 94 181 160 80 146 82 385
5 535 -49 97 -163 179 -267 192 -25 3 -57 7 -71 9 -14 1 -53 -1 -88 -5z"/>
<path d="M5272 6133 l3 -168 69 -3 c95 -4 217 12 262 34 55 27 77 64 81 131 5
71 -17 118 -67 148 -30 17 -56 20 -193 23 l-157 4 2 -169z"/>
<path d="M5270 5555 l0 -177 168 4 c156 3 170 5 211 28 60 33 86 79 86 152 0
71 -22 103 -91 138 -45 23 -62 25 -211 29 l-163 3 0 -177z"/>
<path d="M5460 3048 c-372 -31 -823 -128 -1162 -248 l-117 -42 31 -56 c407
-732 899 -1170 1449 -1288 118 -25 372 -26 489 -1 476 102 908 439 1275 997
72 109 195 314 195 324 0 9 -266 101 -405 141 -303 87 -640 149 -948 174 -150
13 -656 12 -807 -1z"/>
<path d="M3494 2423 c-148 -90 -324 -210 -324 -223 0 -22 323 -209 555 -321
156 -75 443 -195 450 -187 2 2 -32 48 -76 103 -132 165 -381 549 -440 678 -7
15 -18 27 -24 27 -7 0 -70 -35 -141 -77z"/>
<path d="M8090 2353 c-98 -174 -260 -415 -369 -550 -49 -62 -86 -113 -81 -113
17 0 250 96 388 159 174 80 467 241 575 316 17 12 9 20 -80 83 -85 61 -197
133 -324 210 l-37 22 -72 -127z"/>
</g>
</svg>
